<?xml version="1.0" encoding="utf-8"?>
<!-- Generator: Adobe Illustrator 14.0.0, SVG Export Plug-In . SVG Version: 6.00 Build 43363)  -->
<!DOCTYPE svg PUBLIC "-//W3C//DTD SVG 1.1//EN" "http://www.w3.org/Graphics/SVG/1.1/DTD/svg11.dtd">
<svg version="1.1" id="Layer_1" xmlns="http://www.w3.org/2000/svg" xmlns:xlink="http://www.w3.org/1999/xlink" x="0px" y="0px"
	 width="92px" height="34px" viewBox="0 0 92 34" enable-background="new 0 0 92 34" xml:space="preserve">
<g>
	<polygon points="37.124,28.243 40.969,28.243 40.969,26.951 42.941,26.951 42.941,28.243 47.891,28.243 47.891,26.951 
		49.863,26.951 49.863,28.243 54.813,28.243 54.813,26.951 56.786,26.951 56.786,28.243 62.042,28.243 62.042,29.654 37.124,29.654 
		35.714,29.654 35.714,28.243 35.714,3.326 37.124,3.326 37.124,8.582 38.417,8.582 38.417,10.553 37.124,10.553 37.124,15.505 
		38.417,15.505 38.417,17.474 37.124,17.474 37.124,22.426 38.417,22.426 38.417,24.396 37.124,24.396 	"/>
</g>
<path d="M20.987,26.111H7.789c-1.693,0-3.068-1.375-3.068-3.049V9.867c0-1.695,1.375-3.069,3.068-3.069h13.198
	c1.674,0,3.047,1.374,3.047,3.069v13.195C24.034,24.738,22.661,26.111,20.987,26.111z M7.789,8.943
	c-0.493,0-0.923,0.408-0.923,0.924v13.195c0,0.494,0.408,0.922,0.923,0.922h13.198c0.493,0,0.922-0.406,0.922-0.922V9.867
	c0-0.494-0.407-0.924-0.922-0.924H7.789z M13.733,20.768L20,14.5c0.431-0.43,0.431-1.094,0-1.521c-0.43-0.431-1.095-0.431-1.521,0
	l-5.494,5.515l-2.727-2.704c-0.43-0.43-1.095-0.43-1.521,0c-0.431,0.429-0.431,1.094,0,1.522l3.498,3.456
	c0.215,0.215,0.494,0.321,0.751,0.321C13.24,21.089,13.54,20.98,13.733,20.768z"/>
<path d="M43.037,25.666v-1.931h6.44V9.523h5.677v10.671h7.205v-5.335h4.678h1.781V3.891h4.659v15.437h1.78V3.231
	c0-0.361-0.401-0.659-0.891-0.659h-6.439c-0.489,0-0.891,0.297-0.891,0.659v10.31h-5.551c-0.489,0-0.891,0.297-0.891,0.659v4.69
	h-3.677V8.864c0-0.362-0.401-0.659-0.891-0.659h-7.44c-0.489,0-0.873,0.297-0.873,0.659v13.553h-5.567
	c-0.489,0-0.891,0.298-0.891,0.659v2.59H43.037z"/>
</svg>
