<svg xmlns="http://www.w3.org/2000/svg" xmlns:xlink="http://www.w3.org/1999/xlink" xml:space="preserve" version="1.1" style="shape-rendering:geometricPrecision;text-rendering:geometricPrecision;image-rendering:optimizeQuality;" viewBox="0 0 1000 1250" x="0px" y="0px" fill-rule="evenodd" clip-rule="evenodd"><defs><style type="text/css">
   
    .fil0 {fill:black;fill-rule:nonzero}
   
  </style></defs><g><path class="fil0" d="M71 512l439 351c7,5 16,4 21,-3 3,-2 4,-6 4,-9l0 -702c0,-8 -7,-15 -15,-15 -4,0 -8,1 -10,4l-439 350c-7,5 -8,15 -3,21 1,1 2,2 3,3zm238 152l-205 -164 401 -320 0 640 -196 -156z"/><path class="fil0" d="M608 866l110 0c8,0 15,-7 15,-15l0 -702c0,-8 -7,-15 -15,-15l-110 0c-8,0 -15,7 -15,15l0 702c0,8 7,15 15,15zm95 -30l-80 0 0 -672 80 0 0 672z"/><path class="fil0" d="M811 866l109 0c8,0 15,-7 15,-15l0 -702c0,-8 -7,-15 -15,-15l-109 0c-8,0 -15,7 -15,15l0 702c0,8 7,15 15,15zm94 -30l-79 0 0 -672 79 0 0 672z"/></g><text x="0" y="1015" fill="#000000" font-size="5px" font-weight="bold" font-family="'Helvetica Neue', Helvetica, Arial-Unicode, Arial, Sans-serif">Created by Royyan Razka</text><text x="0" y="1020" fill="#000000" font-size="5px" font-weight="bold" font-family="'Helvetica Neue', Helvetica, Arial-Unicode, Arial, Sans-serif">from the Noun Project</text></svg>