<?xml version="1.0" encoding="utf-8"?>
<!-- Generator: Adobe Illustrator 14.0.0, SVG Export Plug-In . SVG Version: 6.00 Build 43363)  -->
<!DOCTYPE svg PUBLIC "-//W3C//DTD SVG 1.1//EN" "http://www.w3.org/Graphics/SVG/1.1/DTD/svg11.dtd">
<svg version="1.1" id="Layer_1" xmlns="http://www.w3.org/2000/svg" xmlns:xlink="http://www.w3.org/1999/xlink" x="0px" y="0px"
	 width="19.313px" height="19.314px" viewBox="287.983 336.878 19.313 19.314"
	 enable-background="new 287.983 336.878 19.313 19.314" xml:space="preserve">
<path d="M304.25,356.192h-13.198c-1.695,0-3.069-1.374-3.069-3.047v-13.197c0-1.695,1.374-3.069,3.069-3.069h13.198
	c1.674,0,3.047,1.374,3.047,3.069v13.197C307.297,354.819,305.924,356.192,304.25,356.192z M291.052,339.025
	c-0.494,0-0.923,0.408-0.923,0.923v13.197c0,0.494,0.408,0.922,0.923,0.922h13.198c0.493,0,0.922-0.408,0.922-0.922v-13.197
	c0-0.494-0.407-0.923-0.922-0.923H291.052z M296.996,350.849l6.267-6.267c0.429-0.429,0.429-1.094,0-1.523
	c-0.43-0.429-1.095-0.429-1.523,0l-5.494,5.515l-2.725-2.704c-0.429-0.429-1.094-0.429-1.523,0s-0.429,1.094,0,1.523l3.498,3.456
	c0.215,0.214,0.494,0.322,0.751,0.322C296.503,351.171,296.803,351.063,296.996,350.849z"/>
</svg>
