<?xml version="1.0" encoding="utf-8"?>
<!-- Generator: Adobe Illustrator 14.0.0, SVG Export Plug-In . SVG Version: 6.00 Build 43363)  -->
<!DOCTYPE svg PUBLIC "-//W3C//DTD SVG 1.1//EN" "http://www.w3.org/Graphics/SVG/1.1/DTD/svg11.dtd">
<svg version="1.1" id="Layer_1" xmlns="http://www.w3.org/2000/svg" xmlns:xlink="http://www.w3.org/1999/xlink" x="0px" y="0px"
	 width="100px" height="43.218px" viewBox="0 260.154 100 43.218" enable-background="new 0 260.154 100 43.218"
	 xml:space="preserve">
<g>
	<path d="M2.208,279.712c14.195-12.934,30.915-19.559,47.634-19.559c17.035,0,33.754,6.625,47.95,19.559L100,281.92l-2.208,1.893
		c-14.196,12.934-30.915,19.559-47.95,19.559c-16.719,0-33.438-6.625-47.634-19.559L0,281.92L2.208,279.712z M65.93,267.725
		c3.155,3.786,5.047,8.518,5.047,14.196c0,5.363-1.893,10.095-5.047,13.88c8.833-2.523,17.666-7.255,25.868-13.88
		C83.596,274.98,74.763,270.249,65.93,267.725z M34.069,295.8c-3.154-3.785-5.363-8.517-5.363-13.88
		c0-5.678,2.208-10.41,5.363-14.196c-9.148,2.524-17.981,7.256-25.868,14.196C16.088,288.545,24.921,293.277,34.069,295.8z
		 M61.198,270.564c-2.839-2.839-6.94-4.417-11.356-4.417c-4.101,0-8.202,1.577-11.041,4.417c-2.839,2.839-4.417,6.94-4.417,11.356
		c0,4.101,1.577,8.202,4.417,11.041s6.94,4.416,11.041,4.416c4.417,0,8.518-1.577,11.356-4.416c2.839-2.839,4.417-6.94,4.417-11.041
		C65.615,277.504,64.038,273.403,61.198,270.564z"/>
	<path d="M49.842,272.772c0.946,0,1.577,0,2.523,0.315c-1.262,0.631-1.893,1.893-1.893,3.155c0,1.893,1.577,3.786,3.786,3.786
		c1.577,0,3.154-1.262,3.47-2.839c0.631,1.262,1.262,2.839,1.262,4.732c0,4.732-4.101,8.833-9.148,8.833
		c-4.732,0-8.833-4.101-8.833-8.833C41.009,276.873,45.11,272.772,49.842,272.772z"/>
</g>
</svg>
