<?xml version="1.0" encoding="utf-8"?>
<!-- Generator: Adobe Illustrator 14.0.0, SVG Export Plug-In . SVG Version: 6.00 Build 43363)  -->
<!DOCTYPE svg PUBLIC "-//W3C//DTD SVG 1.1//EN" "http://www.w3.org/Graphics/SVG/1.1/DTD/svg11.dtd">
<svg version="1.1" id="Layer_1" xmlns="http://www.w3.org/2000/svg" xmlns:xlink="http://www.w3.org/1999/xlink" x="0px" y="0px"
	 width="43.999px" height="44px" viewBox="49.602 98.501 43.999 44" enable-background="new 49.602 98.501 43.999 44"
	 xml:space="preserve">
<title>icon/eyedropper-alt</title>
<desc>Created with Sketch.</desc>
<g>
	<path d="M72.28,111.238l-0.541-0.541c-1.729-1.728-1.729-4.527,0-6.255l0.014-0.014c1.729-1.728,4.527-1.728,6.255,0l0.541,0.541
		l4.69-4.69c2.369-2.37,6.21-2.37,8.58,0c2.374,2.375,2.374,6.215,0.004,8.585l-4.69,4.69l0.541,0.541
		c1.729,1.728,1.729,4.527,0,6.255l-0.014,0.014c-1.728,1.728-4.527,1.728-6.255,0l-0.54-0.541L62.28,138.408
		c-1.376,1.376-3.292,1.973-5.168,1.695l-1.339,1.339c-1.413,1.413-3.699,1.413-5.109,0c-1.416-1.413-1.416-3.698-0.002-5.111
		l1.339-1.339c-0.277-1.876,0.318-3.792,1.695-5.168L72.28,111.238z M73.917,112.876L55.333,131.46
		c-0.949,0.949-1.296,2.318-0.954,3.615c0.105,0.398-0.01,0.822-0.301,1.114l-1.779,1.778c-0.509,0.509-0.509,1.326,0,1.834
		l0.003,0.003c0.506,0.508,1.324,0.508,1.833-0.001l1.778-1.778c0.292-0.292,0.715-0.406,1.114-0.301
		c1.297,0.342,2.666-0.005,3.615-0.954l18.585-18.585L73.917,112.876z"/>
</g>
</svg>
