<svg xmlns="http://www.w3.org/2000/svg" xmlns:xlink="http://www.w3.org/1999/xlink" xml:space="preserve" style="shape-rendering:geometricPrecision;text-rendering:geometricPrecision;image-rendering:optimizeQuality;" viewBox="0 0 6.82666 8.533325000000001" x="0px" y="0px" fill-rule="evenodd" clip-rule="evenodd"><defs><style type="text/css">
   
    .fil1 {fill:none}
    .fil0 {fill:black}
   
  </style></defs><g><path class="fil0" d="M2.48246 4.27382l3.20302 0.0119488c0.159362,0 0.287787,-0.127146 0.287787,-0.290843l0 -1.16939c0,-0.157591 -0.128425,-0.290752 -0.287787,-0.290752l-3.20302 0.0119488 0 -0.842209 -1.62906 1.69663 1.62906 1.72097 0 -0.848315zm0.36415 -0.499555c-0.0220906,0 -0.04,-0.0179094 -0.04,-0.04 0,-0.0220906 0.0179094,-0.04 0.04,-0.04l2.86637 0c0.0220906,0 0.04,0.0179094 0.04,0.04 0,0.0220906 -0.0179094,0.04 -0.04,0.04l-2.86637 0z"/></g><rect class="fil1" width="6.82666" height="6.82666"/><text x="0" y="21.82666" fill="#000000" font-size="5px" font-weight="bold" font-family="'Helvetica Neue', Helvetica, Arial-Unicode, Arial, Sans-serif">Created by Grafix Point</text><text x="0" y="26.82666" fill="#000000" font-size="5px" font-weight="bold" font-family="'Helvetica Neue', Helvetica, Arial-Unicode, Arial, Sans-serif">from the Noun Project</text></svg>