<?xml version="1.0" encoding="utf-8"?>
<!-- Generator: Adobe Illustrator 14.0.0, SVG Export Plug-In . SVG Version: 6.00 Build 43363)  -->
<!DOCTYPE svg PUBLIC "-//W3C//DTD SVG 1.1//EN" "http://www.w3.org/Graphics/SVG/1.1/DTD/svg11.dtd">
<svg version="1.1" id="Layer_1" xmlns="http://www.w3.org/2000/svg" xmlns:xlink="http://www.w3.org/1999/xlink" x="0px" y="0px"
	 width="30px" height="30px" viewBox="0 0 30 30" enable-background="new 0 0 30 30" xml:space="preserve">
<path d="M28.983,26.31l-0.031-0.031L22.073,19.4c1.195-1.712,1.809-3.747,1.809-5.813c0-5.65-4.618-10.269-10.27-10.269
	c-5.65,0-10.27,4.618-10.27,10.269c0,5.652,4.618,10.271,10.27,10.271c2.066,0,4.101-0.646,5.813-1.81l6.878,6.879
	c0.711,0.742,1.906,0.774,2.649,0.032C29.661,28.247,29.692,27.054,28.983,26.31z M13.61,21.079c-4.132,0-7.49-3.357-7.49-7.492
	c0-4.133,3.358-7.491,7.49-7.491c4.135,0,7.492,3.358,7.492,7.491C21.103,17.722,17.745,21.079,13.61,21.079z M15.846,17.577v-2.309
	h-5.053v2.309l-3.11-3.682l3.11-3.682v2.31l5.053-0.001v-2.309l3.11,3.682L15.846,17.577z"/>
</svg>
