<?xml version="1.0" encoding="utf-8"?>
<!-- Generator: Adobe Illustrator 14.0.0, SVG Export Plug-In . SVG Version: 6.00 Build 43363)  -->
<!DOCTYPE svg PUBLIC "-//W3C//DTD SVG 1.1//EN" "http://www.w3.org/Graphics/SVG/1.1/DTD/svg11.dtd">
<svg version="1.1"
	 id="Layer_1" xmlns:dc="http://purl.org/dc/elements/1.1/" xmlns:rdf="http://www.w3.org/1999/02/22-rdf-syntax-ns#" xmlns:inkscape="http://www.inkscape.org/namespaces/inkscape" xmlns:sodipodi="http://sodipodi.sourceforge.net/DTD/sodipodi-0.dtd" xmlns:cc="http://creativecommons.org/ns#" xmlns:svg="http://www.w3.org/2000/svg"
	 xmlns="http://www.w3.org/2000/svg" xmlns:xlink="http://www.w3.org/1999/xlink" x="0px" y="0px" width="30px" height="44px"
	 viewBox="0 0 30 44" enable-background="new 0 0 30 44" xml:space="preserve">
<path d="M27.5,18.5h-2V10c0-5.625-4.759-10-10.484-10s-10.5,4.375-10.5,10v8.5H2.5C1.14,18.5,0,19.642,0,21v20.5
	C0,42.859,1.14,44,2.5,44h25c1.358,0,2.5-1.141,2.5-2.5V21C30,19.642,28.858,18.5,27.5,18.5z M7.515,10c0-3.948,3.265-7,7.5-7
	S22.5,6.052,22.5,10v8.5H7.515V10L7.515,10z M27,41H3V21.5h24V41z"/>
</svg>
