<?xml version="1.0" encoding="utf-8"?>
<!-- Generator: Adobe Illustrator 14.0.0, SVG Export Plug-In . SVG Version: 6.00 Build 43363)  -->
<!DOCTYPE svg PUBLIC "-//W3C//DTD SVG 1.1//EN" "http://www.w3.org/Graphics/SVG/1.1/DTD/svg11.dtd">
<svg version="1.1" id="Layer_1" xmlns="http://www.w3.org/2000/svg" xmlns:xlink="http://www.w3.org/1999/xlink" x="0px" y="0px"
	 width="595.279px" height="841.89px" viewBox="0 0 595.279 841.89" enable-background="new 0 0 595.279 841.89"
	 xml:space="preserve">
<path d="M316.317,414.53c1.315,0.657,3.289,0.658,4.933,0.329h115.098c4.604-0.001,9.208-1.973,12.168-4.933
	c3.288-3.288,4.933-7.563,4.933-12.168c0-9.865-7.563-17.428-17.429-17.428h-73.662l88.46-88.459c6.906-6.907,6.905-18.087,0-24.992
	c-6.906-6.906-18.086-6.907-24.992,0l-88.132,88.131l0.329-73.333c0-4.604-1.974-9.208-4.933-12.167
	c-3.289-3.288-7.563-4.933-12.168-4.933c-4.604,0-9.207,1.974-12.167,4.933c-3.288,3.289-4.933,7.563-5.263,12.497l0.328,116.082
	c0,0.658,0.001,2.631,0.659,4.606c0.328,0.329,0.328,0.986,0.657,1.314c0,0,0,0,0.329,0.329v1.975l0.328,0.329v0.658l4.933,4.932
	c1.314,1.315,2.959,2.302,4.275,2.3C314.674,414.2,315.33,414.2,316.317,414.53z"/>
<path d="M168.663,574.684l88.132-88.132v73.662c0,9.865,7.563,17.429,17.428,17.428c4.604,0,9.208-1.973,12.168-4.933
	s4.933-7.563,5.262-12.496l-0.329-121.345l-0.987-0.987l0.001-1.973l-0.33-0.329v-0.658l-4.604-4.604
	c-1.314-1.314-2.958-2.301-4.274-2.302c-0.329-0.329-0.659,0.001-0.987-0.328l-0.986-0.985l-121.016-0.001
	c-4.604-0.001-9.208,1.974-12.167,4.934s-4.934,7.563-4.933,12.166c0,9.867,7.563,17.43,17.429,17.429l73.333,0.33l-88.132,88.132
	c-6.906,6.906-6.905,18.087,0,24.991C150.576,581.588,161.758,581.588,168.663,574.684z"/>
<path d="M570.632,123.305H24.648C10.696,123.305,0,134.467,0,147.954v546.448c0,13.951,11.162,24.648,24.648,24.648h546.448
	c13.952,0,24.648-11.162,24.648-24.648V147.954C595.279,134.467,584.118,123.305,570.632,123.305z M570.166,693.472H25.113V148.418
	h545.053V693.472L570.166,693.472z"/>
</svg>
